<svg width="38" height="38" viewBox="0 0 38 38" fill="none" xmlns="http://www.w3.org/2000/svg">
<g clip-path="url(#clip0_31_34)">
<path d="M19 15.0412C18.1052 15.0415 17.2307 15.2739 16.4869 15.7091C15.743 16.1443 15.1634 16.7626 14.8212 17.4861C14.4791 18.2095 14.3897 19.0054 14.5645 19.7732C14.7392 20.5411 15.1703 21.2463 15.8031 21.7998C16.4359 22.3533 17.2421 22.7302 18.1197 22.8829C18.9973 23.0355 19.9069 22.957 20.7335 22.6573C21.5601 22.3577 22.2666 21.8502 22.7637 21.1993C23.2608 20.5483 23.5261 19.7829 23.5261 19C23.5252 17.95 23.048 16.9433 22.1993 16.201C21.3507 15.4587 20.2 15.0416 19 15.0412V15.0412ZM29.5781 11.9982C29.3478 11.4875 28.9999 11.0236 28.5562 10.6353C28.1125 10.2471 27.5824 9.94275 26.9987 9.74121C25.2174 9.12594 20.9763 9.26398 19 9.26398C17.0237 9.26398 12.7868 9.12074 11.0005 9.74121C10.4168 9.94275 9.88663 10.2471 9.44292 10.6353C8.99921 11.0236 8.6514 11.4875 8.42107 11.9982C7.71875 13.5568 7.87567 17.2714 7.87567 18.9993C7.87567 20.7271 7.71875 24.4373 8.42446 26.0011C8.65479 26.5118 9.0026 26.9757 9.44631 27.3639C9.89002 27.7522 10.4202 28.0565 11.0039 28.258C12.7851 28.8733 17.0262 28.7353 19.0034 28.7353C20.9806 28.7353 25.2157 28.8785 27.0021 28.258C27.5858 28.0565 28.1159 27.7522 28.5596 27.3639C29.0033 26.9757 29.3511 26.5118 29.5815 26.0011C30.2897 24.4425 30.1269 20.7278 30.1269 19C30.1269 17.2722 30.2897 13.5627 29.5815 11.9989L29.5781 11.9982ZM19 25.0859C17.6244 25.0859 16.2796 24.729 15.1358 24.0603C13.992 23.3915 13.1005 22.441 12.5741 21.329C12.0477 20.2169 11.9099 18.9932 12.1783 17.8127C12.4467 16.6321 13.1091 15.5477 14.0818 14.6966C15.0545 13.8455 16.2939 13.2658 17.6431 13.031C18.9923 12.7962 20.3908 12.9167 21.6617 13.3773C22.9326 13.838 24.0189 14.618 24.7832 15.6188C25.5474 16.6197 25.9554 17.7963 25.9554 19C25.9565 19.7995 25.7773 20.5913 25.4282 21.3301C25.079 22.069 24.5668 22.7403 23.9207 23.3056C23.2746 23.8709 22.5074 24.3192 21.663 24.6247C20.8187 24.9302 19.9137 25.0869 19 25.0859V25.0859ZM26.2421 14.0793C25.9209 14.0794 25.607 13.9963 25.3399 13.8403C25.0728 13.6842 24.8646 13.4624 24.7415 13.2029C24.6185 12.9433 24.5863 12.6577 24.6488 12.3821C24.7114 12.1065 24.8659 11.8533 25.0929 11.6545C25.3199 11.4558 25.6092 11.3204 25.9242 11.2656C26.2391 11.2107 26.5656 11.2388 26.8623 11.3463C27.159 11.4538 27.4126 11.6358 27.591 11.8695C27.7694 12.1031 27.8647 12.3778 27.8647 12.6587C27.8656 12.8453 27.8244 13.0303 27.7434 13.2029C27.6624 13.3755 27.5433 13.5325 27.3929 13.6647C27.2424 13.797 27.0636 13.9019 26.8667 13.9736C26.6698 14.0452 26.4587 14.0822 26.2454 14.0823L26.2421 14.0793ZM33.9286 2.375H4.07143C2.99162 2.375 1.95603 2.75033 1.19249 3.41843C0.428953 4.08653 0 4.99267 0 5.9375L0 32.0625C0 33.0073 0.428953 33.9135 1.19249 34.5816C1.95603 35.2497 2.99162 35.625 4.07143 35.625H33.9286C35.0084 35.625 36.044 35.2497 36.8075 34.5816C37.571 33.9135 38 33.0073 38 32.0625V5.9375C38 4.99267 37.571 4.08653 36.8075 3.41843C36.044 2.75033 35.0084 2.375 33.9286 2.375V2.375ZM32.4764 23.8984C32.367 25.8007 31.8708 27.4862 30.2838 28.8711C28.6968 30.256 26.7722 30.6991 24.6008 30.7896C22.3606 30.9002 15.6445 30.9002 13.4043 30.7896C11.2304 30.6939 9.31085 30.259 7.72129 28.8711C6.13174 27.4832 5.63214 25.797 5.52866 23.8984C5.40228 21.9376 5.40228 16.0602 5.52866 14.1016C5.63808 12.1993 6.12835 10.5138 7.72129 9.12891C9.31424 7.74398 11.2388 7.30609 13.4043 7.21555C15.6445 7.10496 22.3606 7.10496 24.6008 7.21555C26.7747 7.31129 28.7002 7.74621 30.2838 9.1341C31.8674 10.522 32.3729 12.2082 32.4764 14.1105C32.6028 16.0639 32.6028 21.9361 32.4764 23.8984Z" fill="black"/>
</g>
<defs>
<clipPath id="clip0_31_34">
<rect width="38" height="38" fill="white"/>
</clipPath>
</defs>
</svg>
