<svg width="38" height="40" viewBox="0 0 38 40" fill="none" xmlns="http://www.w3.org/2000/svg">
<g clip-path="url(#clip0_31_36)">
<mask id="mask0_31_36" style="mask-type:alpha" maskUnits="userSpaceOnUse" x="0" y="0" width="38" height="40">
<path d="M0 0H38V40H0V0Z" fill="white"/>
</mask>
<g mask="url(#mask0_31_36)">
<path fill-rule="evenodd" clip-rule="evenodd" d="M38 20C38 31.045 29.4928 40 19 40C8.50725 40 0 31.045 0 20C0 8.955 8.50725 0 19 0C29.4928 0 38 8.955 38 20ZM31.1727 18.43C31.4798 18.8917 31.654 19.4367 31.673 20C31.6813 20.5511 31.5411 21.0934 31.2688 21.5642C30.9964 22.0349 30.603 22.4149 30.134 22.66C30.1562 22.9533 30.1562 23.2467 30.134 23.54C30.134 28.02 25.175 31.66 19.057 31.66C12.939 31.66 7.98 28.02 7.98 23.54C7.95861 23.2471 7.95861 22.9529 7.98 22.66C7.61769 22.4815 7.2964 22.2225 7.03822 21.9008C6.78003 21.5792 6.59108 21.2025 6.48434 20.7966C6.37761 20.3908 6.35562 19.9655 6.41989 19.5498C6.48417 19.1342 6.63318 18.7381 6.85668 18.3889C7.08018 18.0397 7.37288 17.7455 7.71465 17.5266C8.05642 17.3078 8.43916 17.1694 8.83656 17.1211C9.23395 17.0727 9.63658 17.1155 10.0168 17.2465C10.397 17.3775 10.7457 17.5936 11.039 17.88C13.2283 16.3171 15.804 15.462 18.449 15.42L19.855 8.48C19.8708 8.39966 19.9016 8.32341 19.9456 8.25568C19.9895 8.18795 20.0459 8.13009 20.1113 8.08544C20.1766 8.04079 20.2498 8.01025 20.3265 7.99559C20.4032 7.98092 20.4819 7.98242 20.558 8L25.213 8.98C25.4403 8.56888 25.7994 8.2565 26.2258 8.09895C26.6522 7.94141 27.118 7.949 27.5396 8.12037C27.9612 8.29174 28.3109 8.61567 28.526 9.03401C28.7411 9.45235 28.8076 9.9377 28.7134 10.4029C28.6192 10.8682 28.3705 11.2829 28.0121 11.5725C27.6536 11.8622 27.2088 12.0079 26.7575 11.9834C26.3062 11.959 25.8779 11.766 25.5496 11.4392C25.2212 11.1123 25.0143 10.673 24.966 10.2L20.9 9.3L19.665 15.54C22.2779 15.599 24.8186 16.4534 26.98 18C27.2685 17.708 27.6137 17.4852 27.9918 17.3469C28.3699 17.2087 28.772 17.1583 29.1704 17.1991C29.5687 17.24 29.954 17.3712 30.2996 17.5836C30.6453 17.7961 30.9431 18.0848 31.1727 18.43V18.43ZM12.9928 20.8883C12.8541 21.1068 12.7577 21.3518 12.709 21.6095C12.6603 21.8672 12.6602 22.1324 12.7089 22.3901C12.8072 22.9105 13.0978 23.3685 13.5169 23.6633C13.936 23.9582 14.4492 24.0657 14.9436 23.9622C15.1884 23.911 15.4212 23.8095 15.6287 23.6636C15.8363 23.5176 16.0145 23.3301 16.1532 23.1117C16.4333 22.6705 16.5354 22.1303 16.4371 21.6099C16.3388 21.0895 16.0482 20.6315 15.6291 20.3367C15.21 20.0418 14.6968 19.9343 14.2024 20.0378C13.708 20.1412 13.2729 20.4472 12.9928 20.8883ZM19.019 29.04C20.7053 29.1133 22.3646 28.65 23.712 27.58C23.8128 27.4766 23.8704 27.3352 23.8722 27.1871C23.874 27.0389 23.8198 26.8961 23.7215 26.79C23.6728 26.7375 23.6148 26.6955 23.5508 26.6666C23.4867 26.6377 23.4179 26.6223 23.3482 26.6214C23.2075 26.6195 23.0718 26.6766 22.971 26.78C21.8179 27.6507 20.417 28.0811 19 28C17.5847 28.0666 16.1903 27.622 15.048 26.74C14.9496 26.655 14.8246 26.6115 14.6974 26.6181C14.5702 26.6246 14.4499 26.6808 14.3598 26.7756C14.2697 26.8704 14.2164 26.997 14.2102 27.1309C14.2039 27.2648 14.2452 27.3964 14.326 27.5C15.674 28.5693 17.3325 29.1135 19.019 29.04V29.04ZM22.3139 23.7433C22.6274 23.9633 22.9758 24.16 23.351 24.16C23.6087 24.1632 23.8643 24.1111 24.1023 24.0069C24.3402 23.9027 24.5555 23.7486 24.7351 23.554C24.9146 23.3594 25.0546 23.1284 25.1466 22.8749C25.2386 22.6215 25.2806 22.351 25.27 22.08C25.2699 21.7345 25.1847 21.395 25.0229 21.0945C24.861 20.7939 24.628 20.5426 24.3465 20.3651C24.0649 20.1875 23.7445 20.0898 23.4164 20.0813C23.0883 20.0729 22.7637 20.1541 22.4743 20.3169C22.1849 20.4798 21.9404 20.7188 21.7648 21.0107C21.5892 21.3025 21.4885 21.6373 21.4723 21.9823C21.4562 22.3274 21.5252 22.6709 21.6727 22.9796C21.8202 23.2882 22.0411 23.5513 22.3139 23.7433V23.7433Z" fill="black"/>
</g>
</g>
<defs>
<clipPath id="clip0_31_36">
<rect width="38" height="40" fill="white"/>
</clipPath>
</defs>
</svg>
